<?xml version="1.0" standalone="no"?>
<!DOCTYPE svg PUBLIC "-//W3C//DTD SVG 20010904//EN"
 "http://www.w3.org/TR/2001/REC-SVG-20010904/DTD/svg10.dtd">
<svg version="1.0" xmlns="http://www.w3.org/2000/svg"
 width="200.000000pt" height="200.000000pt" viewBox="0 0 200.000000 200.000000"
 preserveAspectRatio="xMidYMid meet">

<g transform="translate(0.000000,200.000000) scale(0.100000,-0.100000)"
fill="#000000" stroke="none">
<path d="M1010 1750 c0 -5 7 -10 15 -10 11 0 15 -12 15 -46 0 -27 4 -43 10
-39 6 3 10 24 10 46 0 30 4 39 18 40 14 0 14 2 -3 9 -28 12 -65 12 -65 0z"/>
<path d="M920 1700 l0 -50 34 0 c19 0 38 5 41 10 4 6 -7 10 -24 10 -29 0 -31
2 -31 40 0 22 -4 40 -10 40 -5 0 -10 -22 -10 -50z"/>
<path d="M808 1733 c-21 -5 -21 -2 -7 -60 11 -43 13 -45 43 -39 43 9 59 28 21
24 -34 -3 -47 15 -15 20 11 2 20 8 20 14 0 6 -10 8 -24 4 -38 -9 -41 12 -4 28
30 13 31 14 8 14 -14 0 -33 -2 -42 -5z"/>
<path d="M1131 1694 c-7 -26 -11 -48 -9 -49 2 -2 21 -6 43 -10 27 -5 37 -4 30
3 -5 5 -18 12 -28 14 -27 5 -20 23 9 21 32 -2 31 13 -1 21 -36 9 -32 30 5 23
16 -4 32 -3 34 2 5 7 -38 21 -64 21 -4 0 -13 -21 -19 -46z"/>
<path d="M853 1585 c-77 -21 -118 -40 -194 -91 -90 -60 -160 -139 -208 -238
-51 -106 -66 -171 -64 -286 5 -364 320 -646 679 -608 96 10 128 20 222 65 254
125 393 427 323 702 -29 115 -79 201 -170 291 -85 84 -181 139 -291 164 -80
19 -227 19 -297 1z m440 -110 c4 -8 3 -16 -1 -19 -4 -3 -9 4 -9 15 -2 23 3 25
10 4z m-144 -92 c1 -7 2 -22 3 -32 2 -21 74 -67 97 -63 7 2 10 -1 7 -6 -9 -15
21 -34 44 -27 11 3 30 3 41 0 19 -6 21 -12 15 -51 -8 -58 19 -131 41 -113 8 7
13 8 12 3 -2 -5 1 -20 5 -33 6 -18 4 -28 -9 -37 -10 -8 -23 -11 -28 -7 -6 4
-8 0 -4 -11 4 -10 3 -15 -3 -11 -5 3 -14 -4 -21 -16 -8 -15 -8 -23 0 -28 15
-10 -15 -51 -37 -51 -10 0 -41 -31 -70 -69 -46 -61 -51 -72 -42 -95 10 -29 30
-35 30 -10 0 19 20 14 34 -8 7 -12 5 -20 -7 -33 -10 -9 -14 -21 -11 -27 5 -7
2 -8 -5 -3 -7 4 -10 16 -8 26 4 15 1 19 -16 16 -12 -2 -29 -7 -37 -10 -8 -3
-32 -8 -53 -12 -24 -4 -35 -10 -31 -17 4 -7 3 -8 -5 -4 -6 4 -27 2 -46 -4 -19
-6 -41 -10 -48 -7 -6 2 17 13 52 24 35 11 60 22 55 25 -8 4 -97 7 -292 8 l-63
0 1 58 c1 31 1 102 1 156 -1 98 -1 99 -21 81 -13 -12 -20 -31 -20 -54 0 -41
-14 -70 -24 -52 -4 6 -21 11 -37 11 -29 0 -30 1 -27 43 l3 42 45 3 c60 4 80
24 80 79 0 30 -4 42 -11 37 -8 -4 -8 0 0 15 13 24 22 26 39 9 14 -14 16 -32 2
-23 -5 3 -8 -65 -7 -182 2 -181 3 -188 22 -186 20 1 20 1 1 -13 -19 -14 -19
-14 2 -14 23 0 26 7 16 34 -5 14 -9 14 -22 4 -13 -11 -14 -10 -4 8 6 11 18 26
26 33 9 8 14 16 12 20 -2 3 8 17 21 31 l25 25 -13 -25 c-8 -14 -23 -35 -33
-47 -23 -27 -13 -42 16 -24 20 12 20 12 4 -10 -30 -43 -22 -49 64 -49 l80 0 0
40 0 40 -60 -4 c-40 -2 -59 1 -57 7 2 6 25 10 53 8 27 -1 60 2 72 6 l24 9 -28
35 c-20 24 -22 28 -6 15 13 -12 22 -14 22 -7 0 7 5 9 10 6 6 -3 13 1 16 9 3 9
10 13 15 10 13 -8 11 9 -6 49 -19 45 -59 55 -95 24 l-25 -22 19 22 c12 14 19
38 19 63 0 32 -7 47 -42 85 -37 41 -61 59 -47 36 3 -4 -7 -19 -22 -32 l-27
-24 22 26 c18 20 20 28 10 38 -9 10 -9 12 3 9 9 -2 16 6 18 20 3 17 -1 22 -17
22 -22 0 -23 3 -23 45 0 14 0 30 1 35 1 13 81 13 101 0 10 -6 11 -10 3 -10
-29 0 -10 -20 20 -22 l32 -1 -32 -4 c-25 -3 -33 -9 -33 -24 0 -13 -7 -19 -21
-19 -19 0 -21 -4 -15 -32 9 -46 70 -106 101 -101 28 6 40 50 20 73 -8 10 -10
22 -4 38 11 29 59 31 66 3 5 -21 80 -45 108 -35 20 8 14 29 -8 28 -9 -1 -14 2
-11 7 3 5 0 10 -5 10 -6 1 -15 3 -21 4 -5 1 -12 3 -15 4 -3 0 -8 2 -12 3 -5 1
-14 7 -20 14 -7 7 -32 16 -55 20 -38 6 -40 8 -18 14 14 4 24 12 22 19 -1 7 2
10 8 6 5 -3 10 1 10 9 0 8 9 20 20 26 25 14 25 6 -1 -36 -22 -35 -15 -42 24
-23 20 9 20 9 5 -4 -16 -13 -12 -16 47 -35 44 -15 71 -19 87 -13 22 8 21 9 -9
15 -18 4 -36 5 -41 2 -15 -9 -33 11 -52 60 -10 27 -19 45 -20 40 0 -5 -6 -3
-14 3 -10 8 -22 7 -49 -4 -44 -18 -71 -19 -39 -2 12 7 19 17 15 22 -4 4 -2 5
5 1 18 -10 52 3 52 20 0 8 7 17 15 20 8 4 13 9 11 13 -3 4 3 7 13 7 10 0 19
-6 20 -13z m-66 -13 c-3 -12 -8 -19 -11 -16 -5 6 5 36 12 36 2 0 2 -9 -1 -20z
m108 3 c13 -16 12 -17 -3 -4 -10 7 -18 15 -18 17 0 8 8 3 21 -13z m16 -40 c0
-9 -4 -10 -14 -2 -7 6 -13 12 -13 14 0 1 6 2 13 2 8 0 14 -6 14 -14z m-417
-48 c0 -20 -32 -27 -47 -12 -12 12 -12 17 2 31 13 13 20 14 31 5 8 -6 14 -17
14 -24z m-12 -93 c2 -7 -2 -12 -9 -12 -7 0 -24 -10 -38 -22 l-26 -23 23 26
c12 14 22 31 22 38 0 15 22 10 28 -7z m193 -62 c6 0 7 5 4 10 -3 6 -1 10 4 10
13 0 13 -3 5 -24 -7 -19 -34 -9 -33 13 0 10 2 11 6 4 2 -7 9 -13 14 -13z
m-281 -37 c0 -23 -5 -33 -15 -33 -8 0 -16 -8 -16 -17 -1 -17 -2 -17 -6 0 -2 9
-11 17 -19 17 -9 0 -14 10 -14 28 0 36 1 37 39 37 28 1 31 -2 31 -32z m188
-121 c2 -12 12 -28 23 -35 10 -6 19 -16 19 -21 0 -5 -11 0 -23 13 -13 12 -31
19 -39 16 -19 -8 -42 20 -34 41 9 24 50 14 54 -14z m73 -79 c13 -16 12 -17 -3
-4 -10 7 -18 15 -18 17 0 8 8 3 21 -13z m-51 3 c0 -2 -7 -9 -15 -16 -13 -11
-14 -10 -9 4 5 14 24 23 24 12z m-179 -43 c13 -16 12 -17 -3 -4 -10 7 -18 15
-18 17 0 8 8 3 21 -13z m234 -13 c3 -5 -1 -10 -10 -10 -9 0 -13 5 -10 10 3 6
8 10 10 10 2 0 7 -4 10 -10z m19 -203 c8 -13 7 -21 -7 -34 -23 -23 -49 -8 -58
34 -6 29 -5 30 24 24 17 -4 35 -14 41 -24z"/>
<path d="M1116 1362 c-3 -6 -1 -14 5 -17 15 -10 25 3 12 16 -7 7 -13 7 -17 1z"/>
<path d="M1159 1278 c17 -42 19 -43 67 -46 l49 -2 -30 25 c-16 14 -36 25 -43
25 -7 0 -20 9 -29 20 -28 32 -34 23 -14 -22z"/>
<path d="M860 1249 c0 -24 4 -29 25 -29 20 0 25 5 25 24 0 17 -7 25 -25 28
-22 5 -25 2 -25 -23z"/>
<path d="M1307 1234 c-14 -15 -6 -34 14 -34 14 0 19 5 17 17 -3 18 -20 27 -31
17z"/>
<path d="M1243 1185 c-18 -8 -33 -19 -33 -25 0 -6 5 -8 10 -5 6 4 17 2 24 -4
16 -13 42 -5 50 14 9 25 -17 34 -51 20z"/>
<path d="M1032 1164 c4 -21 22 -23 26 -1 2 10 -3 17 -13 17 -10 0 -15 -6 -13
-16z"/>
<path d="M1305 1160 c-7 -11 5 -190 12 -190 7 0 42 44 43 54 0 4 -7 5 -16 2
-12 -4 -10 1 5 23 19 27 20 31 5 45 -8 9 -13 19 -11 23 7 12 -11 53 -22 53 -5
0 -13 -5 -16 -10z"/>
<path d="M1060 1130 c-25 -20 -25 -20 -5 -36 20 -16 20 -16 -2 -9 -22 6 -31
-4 -17 -18 11 -11 44 13 44 32 0 11 10 21 23 25 18 5 20 8 7 16 -20 13 -21 13
-50 -10z"/>
<path d="M1146 1114 c16 -23 11 -64 -7 -64 -5 0 -9 -11 -9 -24 0 -27 21 -39
54 -30 14 3 27 -1 35 -10 7 -9 17 -13 22 -10 5 3 9 0 9 -6 0 -19 43 -6 46 14
1 10 0 46 -4 80 -5 44 -11 61 -22 61 -9 0 -14 -7 -12 -17 2 -10 -3 -18 -10
-18 -7 0 -22 -3 -34 -6 -15 -4 -23 1 -31 19 -6 13 -20 27 -32 30 -19 5 -19 4
-5 -19z m119 -73 c3 -5 2 -12 -3 -15 -5 -3 -9 1 -9 9 0 17 3 19 12 6z"/>
<path d="M1200 1115 c0 -8 7 -15 15 -15 8 0 15 7 15 15 0 8 -7 15 -15 15 -8 0
-15 -7 -15 -15z"/>
<path d="M1101 1097 c-7 -7 -7 -14 0 -23 12 -15 39 -7 39 11 0 18 -25 26 -39
12z"/>
<path d="M1064 1054 c-21 -9 -3 -44 22 -44 27 0 28 3 14 31 -11 19 -16 21 -36
13z"/>
<path d="M1372 1048 c6 -18 28 -21 28 -4 0 9 -7 16 -16 16 -9 0 -14 -5 -12
-12z"/>
<path d="M976 1035 c-8 -22 4 -45 24 -45 23 0 42 24 34 44 -8 20 -50 21 -58 1z"/>
<path d="M1048 988 c-6 -16 12 -58 24 -58 5 0 6 -4 3 -10 -3 -5 -1 -10 4 -10
6 0 11 5 11 11 0 6 6 9 13 6 10 -4 13 2 10 21 -2 15 0 21 3 15 8 -17 29 -16
43 1 9 11 4 15 -26 21 -21 3 -48 9 -59 11 -13 4 -24 0 -26 -8z"/>
<path d="M640 940 c0 -27 3 -30 30 -30 27 0 30 3 30 30 0 27 -3 30 -30 30 -27
0 -30 -3 -30 -30z"/>
<path d="M1152 937 c-18 -19 -22 -35 -22 -85 0 -38 5 -63 13 -68 6 -4 9 -4 5
1 -4 4 -3 14 2 20 6 7 12 34 15 61 2 27 7 59 11 72 8 28 3 28 -24 -1z m1 -57
c-3 -11 -7 -20 -9 -20 -2 0 -4 9 -4 20 0 11 4 20 9 20 5 0 7 -9 4 -20z"/>
<path d="M1197 953 c-7 -13 -30 -173 -25 -178 2 -3 27 25 54 61 45 59 54 87
36 106 -12 11 -60 20 -65 11z"/>
<path d="M1290 935 c0 -8 9 -15 20 -15 11 0 20 7 20 15 0 8 -9 15 -20 15 -11
0 -20 -7 -20 -15z"/>
<path d="M1102 870 c0 -14 2 -19 5 -12 2 6 2 18 0 25 -3 6 -5 1 -5 -13z"/>
<path d="M1067 843 c-6 -11 9 -49 23 -58 19 -12 23 3 10 35 -12 29 -24 38 -33
23z"/>
<path d="M1023 803 c-14 -5 -19 -93 -5 -93 19 1 29 18 28 52 -2 41 -5 47 -23
41z"/>
<path d="M1066 772 c-2 -4 -3 -17 -1 -28 2 -10 4 -22 4 -25 1 -8 31 -7 31 1 0
3 -6 12 -12 19 -10 11 -10 13 0 7 6 -4 12 -3 12 2 0 14 -27 34 -34 24z"/>
<path d="M1130 745 c-16 -19 -6 -45 19 -45 23 0 35 28 20 46 -15 18 -24 18
-39 -1z"/>
<path d="M745 1291 c-3 -5 -1 -12 5 -16 12 -7 30 2 30 16 0 12 -27 12 -35 0z"/>
<path d="M637 1090 c3 -11 12 -20 19 -20 8 0 14 9 14 20 0 13 -7 20 -19 20
-14 0 -18 -5 -14 -20z"/>
<path d="M834 979 c-3 -6 -2 -15 4 -21 13 -13 32 -2 32 18 0 16 -26 19 -36 3z"/>
<path d="M923 634 c-3 -8 -1 -20 6 -27 14 -14 47 15 37 32 -10 16 -36 13 -43
-5z"/>
<path d="M340 648 c-19 -12 -37 -23 -39 -25 -8 -6 30 -52 48 -58 49 -15 80 44
47 88 -16 21 -14 21 -56 -5z m48 -35 c-2 -20 -9 -29 -26 -31 -30 -5 -42 26
-17 44 31 23 47 17 43 -13z"/>
<path d="M1606 618 c-22 -31 -21 -33 20 -57 45 -27 48 -26 62 4 17 37 15 55
-7 55 -11 0 -23 5 -26 10 -10 17 -33 11 -49 -12z m34 -18 c-6 -11 -15 -18 -20
-15 -13 8 0 35 16 35 12 0 12 -4 4 -20z m43 4 c3 -4 2 -16 -4 -26 -13 -24 -33
-10 -23 15 6 18 16 21 27 11z"/>
<path d="M1560 551 c0 -5 11 -16 25 -25 14 -9 25 -23 25 -32 0 -26 -30 -28
-55 -4 -14 13 -28 20 -32 16 -11 -10 44 -56 66 -56 46 0 53 45 13 83 -29 28
-42 33 -42 18z"/>
<path d="M408 536 c-44 -13 -59 -26 -31 -26 25 0 47 -25 40 -45 -4 -8 -3 -17
2 -19 7 -5 51 75 51 94 0 12 -14 11 -62 -4z m36 -21 c-7 -16 -24 -21 -24 -6 0
8 7 13 27 20 1 1 0 -6 -3 -14z"/>
<path d="M504 483 c4 -10 -3 -26 -20 -45 -36 -36 -22 -50 14 -14 20 18 34 25
48 20 14 -5 12 1 -10 24 -33 36 -41 40 -32 15z"/>
<path d="M1460 443 c1 -5 14 -24 30 -43 l30 -34 28 28 c25 27 23 28 -20 11
-11 -4 -22 1 -33 19 -16 25 -35 35 -35 19z"/>
<path d="M548 396 c-49 -29 -58 -39 -33 -35 30 3 55 -11 55 -32 0 -37 19 -18
25 26 11 72 9 74 -47 41z m36 -21 c-4 -8 -10 -12 -15 -9 -14 8 -10 24 6 24 9
0 12 -6 9 -15z"/>
<path d="M1408 408 c-30 -23 -27 -71 5 -85 26 -12 62 -1 70 21 8 20 -2 20 -23
1 -19 -17 -45 -11 -54 12 -7 18 10 43 31 43 8 0 11 5 8 10 -8 13 -18 13 -37
-2z"/>
<path d="M690 335 c-10 -13 -10 -19 4 -33 18 -20 21 -42 7 -42 -6 0 -13 5 -16
10 -3 6 -12 10 -18 10 -7 -1 -1 -9 11 -20 18 -15 28 -17 43 -10 24 13 24 19
-3 47 -23 25 -18 44 7 23 9 -7 19 -10 23 -6 7 7 -24 36 -39 36 -3 0 -12 -7
-19 -15z"/>
<path d="M1263 327 l-22 -12 19 -43 c10 -23 21 -42 24 -42 13 0 56 24 56 32 0
10 -11 10 -30 -1 -26 -17 -33 1 -9 21 l24 20 -27 -6 c-34 -8 -36 6 -5 27 27
19 3 23 -30 4z"/>
<path d="M780 290 c-39 -39 -12 -87 48 -81 21 2 13 18 -9 17 -32 -1 -48 29
-26 51 14 14 21 15 37 6 11 -8 21 -9 25 -3 6 9 -25 30 -44 30 -6 0 -20 -9 -31
-20z"/>
<path d="M1162 288 c-18 -18 -14 -53 8 -73 17 -15 24 -16 45 -7 14 6 25 16 25
22 0 7 -7 7 -21 0 -28 -16 -49 -5 -49 24 0 24 23 41 41 30 5 -3 9 0 9 5 0 15
-43 14 -58 -1z"/>
<path d="M888 285 c-3 -5 -9 -29 -13 -52 -8 -52 11 -60 20 -9 8 38 3 77 -7 61z"/>
<path d="M930 230 l0 -50 35 0 c19 0 35 5 35 10 0 6 -11 10 -25 10 -14 0 -25
5 -25 10 0 6 11 10 25 10 14 0 25 5 25 10 0 6 -11 10 -25 10 -14 0 -25 5 -25
10 0 6 14 10 31 10 17 0 28 4 24 10 -3 6 -22 10 -41 10 l-34 0 0 -50z"/>
<path d="M1030 261 c0 -35 12 -81 22 -81 6 0 7 14 3 33 l-7 32 36 -34 36 -35
0 46 c0 26 -4 50 -10 53 -6 4 -10 -7 -10 -25 l0 -32 -26 31 c-29 35 -44 39
-44 12z"/>
</g>
</svg>
