<svg xmlns="http://www.w3.org/2000/svg" viewBox="0 0 32 32" width="32" height="32">
  <defs>
    <linearGradient id="dataScienceGradient" x1="0%" y1="0%" x2="100%" y2="100%">
      <stop offset="0%" style="stop-color:#0ea5e9;stop-opacity:1" />
      <stop offset="100%" style="stop-color:#1e40af;stop-opacity:1" />
    </linearGradient>
  </defs>
  
  <!-- Database icon -->
  <path fill="url(#dataScienceGradient)" d="M16 2C8.268 2 2 4.686 2 8v16c0 3.314 6.268 6 14 6s14-2.686 14-6V8c0-3.314-6.268-6-14-6z"/>
  
  <!-- Data points/analytics lines -->
  <circle fill="#ffffff" cx="8" cy="12" r="1.5"/>
  <circle fill="#ffffff" cx="12" cy="16" r="1.5"/>
  <circle fill="#ffffff" cx="16" cy="14" r="1.5"/>
  <circle fill="#ffffff" cx="20" cy="18" r="1.5"/>
  <circle fill="#ffffff" cx="24" cy="15" r="1.5"/>
  
  <!-- Connection lines -->
  <path fill="none" stroke="#ffffff" stroke-width="1.5" stroke-linecap="round" d="M8 12L12 16L16 14L20 18L24 15"/>
  
  <!-- Chart bars -->
  <rect fill="#ffffff" x="6" cy="22" width="2" height="4"/>
  <rect fill="#ffffff" x="10" cy="20" width="2" height="6"/>
  <rect fill="#ffffff" x="14" cy="21" width="2" height="5"/>
  <rect fill="#ffffff" x="18" cy="19" width="2" height="7"/>
  <rect fill="#ffffff" x="22" cy="23" width="2" height="3"/>
</svg>